<svg width="1097" height="196" viewBox="0 0 1097 196" fill="none" xmlns="http://www.w3.org/2000/svg">
<path d="M80.155 92.7C68.455 92.7 57.7 91.98 47.89 90.54C38.17 89.19 29.71 86.85 22.51 83.52C15.4 80.1 9.865 75.465 5.905 69.615C2.035 63.765 0.1 56.385 0.1 47.475C0.1 38.565 2.08 31.14 6.04 25.2C10 19.17 15.67 14.4 23.05 10.89C30.52 7.28999 39.385 4.725 49.645 3.195C59.995 1.665 71.515 0.899996 84.205 0.899996C100.855 0.899996 114.805 2.43 126.055 5.48999C137.395 8.55 146.035 12.915 151.975 18.585C157.915 24.165 161.11 30.825 161.56 38.565H126.46C125.38 36.585 123.4 34.695 120.52 32.895C117.64 31.005 113.32 29.475 107.56 28.305C101.8 27.135 94.015 26.55 84.205 26.55C72.685 26.55 63.325 27.27 56.125 28.71C48.925 30.06 43.66 32.265 40.33 35.325C37 38.385 35.335 42.435 35.335 47.475C35.335 51.885 37.045 55.53 40.465 58.41C43.885 61.29 49.375 63.45 56.935 64.89C64.495 66.33 74.485 67.05 86.905 67.05C95.635 67.05 103.195 66.69 109.585 65.97C116.065 65.16 121.915 63.945 127.135 62.325C132.445 60.705 137.71 58.68 142.93 56.25L146.17 60.165C140.59 70.695 132.31 78.75 121.33 84.33C110.35 89.91 96.625 92.7 80.155 92.7ZM136.99 90C136.99 87.3 137.35 84.24 138.07 80.82C138.79 77.4 139.69 73.845 140.77 70.155C141.94 66.375 143.065 62.82 144.145 59.49H91.495V45.315H163.45V90H136.99ZM216.079 53.55V64.35H318.679V90H182.329V3.59999H318.409V29.25H216.079V40.05H299.779V53.55H216.079ZM330.781 3.59999H471.181V29.25H330.781V3.59999ZM384.106 27.495H417.856V90H384.106V27.495ZM3.475 106.6H37.225V193H3.475V106.6ZM193.544 166.54L180.989 173.695V106.6H214.739V193H180.989L79.3345 134.14L91.8895 126.85V193H58.1395V106.6H91.8895L193.544 166.54ZM264.6 106.6H405V132.25H264.6V106.6ZM317.925 130.495H351.675V193H317.925V130.495ZM492.048 195.7C472.428 195.7 456.633 193.99 444.663 190.57C432.693 187.06 423.963 181.93 418.473 175.18C413.073 168.34 410.373 159.88 410.373 149.8C410.373 139.72 413.073 131.305 418.473 124.555C423.963 117.715 432.693 112.585 444.663 109.165C456.633 105.655 472.428 103.9 492.048 103.9C511.668 103.9 527.463 105.655 539.433 109.165C551.403 112.585 560.088 117.715 565.488 124.555C570.978 131.305 573.723 139.72 573.723 149.8C573.723 159.88 570.978 168.34 565.488 175.18C560.088 181.93 551.403 187.06 539.433 190.57C527.463 193.99 511.668 195.7 492.048 195.7ZM492.048 170.05C501.318 170.05 509.328 169.51 516.078 168.43C522.828 167.26 528.048 165.235 531.738 162.355C535.428 159.385 537.273 155.2 537.273 149.8C537.273 144.4 535.428 140.26 531.738 137.38C528.048 134.41 522.828 132.385 516.078 131.305C509.328 130.135 501.318 129.55 492.048 129.55C482.778 129.55 474.633 130.135 467.613 131.305C460.683 132.385 455.238 134.41 451.278 137.38C447.408 140.26 445.473 144.4 445.473 149.8C445.473 155.2 447.408 159.385 451.278 162.355C455.238 165.235 460.683 167.26 467.613 168.43C474.633 169.51 482.778 170.05 492.048 170.05ZM712.649 143.725V106.6H746.399V149.8C746.399 157.45 744.959 163.975 742.079 169.375C739.289 174.685 735.374 179.095 730.334 182.605C725.294 186.025 719.489 188.68 712.919 190.57C706.349 192.46 699.284 193.765 691.724 194.485C684.254 195.295 676.649 195.7 668.909 195.7C660.719 195.7 652.799 195.295 645.149 194.485C637.499 193.765 630.389 192.46 623.819 190.57C617.339 188.68 611.669 186.025 606.809 182.605C601.949 179.095 598.124 174.685 595.334 169.375C592.634 163.975 591.284 157.45 591.284 149.8V106.6H625.034V143.725C625.034 150.925 626.789 156.415 630.299 160.195C633.809 163.975 638.804 166.585 645.284 168.025C651.854 169.375 659.729 170.05 668.909 170.05C677.819 170.05 685.559 169.375 692.129 168.025C698.699 166.585 703.739 163.975 707.249 160.195C710.849 156.415 712.649 150.925 712.649 143.725ZM925.282 156.955C924.832 165.505 921.727 172.66 915.967 178.42C910.207 184.18 901.702 188.5 890.452 191.38C879.292 194.26 865.162 195.7 848.062 195.7C835.012 195.7 823.312 194.98 812.962 193.54C802.612 192.19 793.792 189.85 786.502 186.52C779.212 183.1 773.632 178.465 769.762 172.615C765.892 166.765 763.957 159.385 763.957 150.475C763.957 141.565 765.892 134.14 769.762 128.2C773.632 122.17 779.212 117.4 786.502 113.89C793.792 110.29 802.612 107.725 812.962 106.195C823.312 104.665 835.012 103.9 848.062 103.9C865.162 103.9 879.337 105.475 890.587 108.625C901.837 111.685 910.342 116.23 916.102 122.26C921.862 128.29 924.967 135.625 925.417 144.265H890.317C889.237 141.385 887.257 138.865 884.377 136.705C881.497 134.455 877.177 132.7 871.417 131.44C865.657 130.18 857.872 129.55 848.062 129.55C836.542 129.55 827.182 130.27 819.982 131.71C812.782 133.06 807.517 135.265 804.187 138.325C800.857 141.385 799.192 145.435 799.192 150.475C799.192 155.065 800.857 158.8 804.187 161.68C807.517 164.56 812.782 166.675 819.982 168.025C827.182 169.375 836.542 170.05 848.062 170.05C857.872 170.05 865.612 169.465 871.282 168.295C877.042 167.125 881.362 165.55 884.242 163.57C887.122 161.5 889.102 159.295 890.182 156.955H925.282ZM971.912 136.435H1066.95V162.085H971.912V136.435ZM1063.17 106.6H1096.92V193H1063.17V106.6ZM943.022 106.6H976.772V193H943.022V106.6Z" fill="white"/>
<path d="M47.89 90.54L48.0352 89.5506L48.0276 89.5495L47.89 90.54ZM22.51 83.52L22.0765 84.4212L22.0834 84.4244L22.0902 84.4276L22.51 83.52ZM5.905 69.615L5.07094 70.1668L5.07689 70.1756L5.905 69.615ZM6.04 25.2L6.87207 25.7547L6.87587 25.7489L6.04 25.2ZM23.05 10.89L23.4795 11.7931L23.4841 11.7908L23.05 10.89ZM49.645 3.195L49.4988 2.20575L49.4975 2.20594L49.645 3.195ZM126.055 5.48999L125.793 6.45494L125.794 6.45546L126.055 5.48999ZM151.975 18.585L151.285 19.3084L151.29 19.3138L151.975 18.585ZM161.56 38.565V39.565H162.62L162.558 38.507L161.56 38.565ZM126.46 38.565L125.582 39.0438L125.866 39.565H126.46V38.565ZM120.52 32.895L119.971 33.731L119.981 33.7371L119.99 33.743L120.52 32.895ZM107.56 28.305L107.361 29.285L107.56 28.305ZM56.125 28.71L56.3093 29.6929L56.3211 29.6906L56.125 28.71ZM40.33 35.325L39.6534 34.5887L40.33 35.325ZM40.465 58.41L41.1091 57.6451L40.465 58.41ZM56.935 64.89L57.1221 63.9077L56.935 64.89ZM109.585 65.97L109.697 66.9638L109.709 66.9623L109.585 65.97ZM127.135 62.325L126.843 61.3685L126.839 61.3699L127.135 62.325ZM142.93 56.25L143.7 55.6124L143.208 55.0175L142.508 55.3434L142.93 56.25ZM146.17 60.165L147.054 60.6332L147.367 60.0425L146.94 59.5274L146.17 60.165ZM121.33 84.33L121.783 85.2215L121.33 84.33ZM136.99 90H135.99V91H136.99V90ZM140.77 70.155L139.815 69.8593L139.812 69.8667L139.81 69.8741L140.77 70.155ZM144.145 59.49L145.096 59.7985L145.521 58.49H144.145V59.49ZM91.495 59.49H90.495V60.49H91.495V59.49ZM91.495 45.315V44.315H90.495V45.315H91.495ZM163.45 45.315H164.45V44.315H163.45V45.315ZM163.45 90V91H164.45V90H163.45ZM80.155 91.7C68.4952 91.7 57.7895 90.9824 48.0352 89.5506L47.7448 91.5294C57.6105 92.9776 68.4148 93.7 80.155 93.7V91.7ZM48.0276 89.5495C38.3831 88.21 30.0221 85.8925 22.9298 82.6124L22.0902 84.4276C29.3979 87.8074 37.9569 90.17 47.7524 91.5305L48.0276 89.5495ZM22.9435 82.6188C15.9738 79.2663 10.5828 74.7414 6.73311 69.0544L5.07689 70.1756C9.14723 76.1886 14.8262 80.9337 22.0765 84.4212L22.9435 82.6188ZM6.73902 69.0633C3.00314 63.416 1.1 56.2416 1.1 47.475H-0.9C-0.9 56.5284 1.06686 64.114 5.07098 70.1667L6.73902 69.0633ZM1.1 47.475C1.1 38.7133 3.04594 31.4939 6.87205 25.7547L5.20795 24.6453C1.11406 30.7861 -0.9 38.4167 -0.9 47.475H1.1ZM6.87587 25.7489C10.7226 19.8915 16.2424 15.2351 23.4795 11.7931L22.6205 9.98693C15.0976 13.5649 9.27745 18.4485 5.20413 24.6511L6.87587 25.7489ZM23.4841 11.7908C30.8442 8.24384 39.6081 5.70278 49.7925 4.18406L49.4975 2.20594C39.1619 3.74721 30.1958 6.33615 22.6159 9.98915L23.4841 11.7908ZM49.7912 4.18425C60.0839 2.66272 71.554 1.9 84.205 1.9V-0.100004C71.476 -0.100004 59.9061 0.667274 49.4988 2.20575L49.7912 4.18425ZM84.205 1.9C100.801 1.9 114.656 3.42579 125.793 6.45494L126.317 4.52505C114.954 1.43421 100.909 -0.100004 84.205 -0.100004V1.9ZM125.794 6.45546C137.038 9.48951 145.506 13.7927 151.285 19.3083L152.665 17.8616C146.564 12.0373 137.752 7.61048 126.316 4.52453L125.794 6.45546ZM151.29 19.3138C157.054 24.7285 160.127 31.1526 160.562 38.623L162.558 38.507C162.093 30.4974 158.776 23.6015 152.66 17.8561L151.29 19.3138ZM161.56 37.565H126.46V39.565H161.56V37.565ZM127.338 38.0861C126.144 35.8977 124.008 33.8956 121.05 32.047L119.99 33.743C122.792 35.4944 124.616 37.2723 125.582 39.0438L127.338 38.0861ZM121.069 32.059C118.033 30.0667 113.568 28.505 107.759 27.325L107.361 29.285C113.072 30.445 117.247 31.9433 119.971 33.731L121.069 32.059ZM107.759 27.325C101.905 26.1358 94.0439 25.55 84.205 25.55V27.55C93.9861 27.55 101.695 28.1342 107.361 29.285L107.759 27.325ZM84.205 25.55C72.6518 25.55 63.2191 26.2714 55.9289 27.7294L56.3211 29.6906C63.4309 28.2686 72.7182 27.55 84.205 27.55V25.55ZM55.9407 27.7271C48.6598 29.0923 43.1821 31.3461 39.6534 34.5887L41.0066 36.0613C44.1379 33.1839 49.1902 31.0277 56.3093 29.6929L55.9407 27.7271ZM39.6534 34.5887C36.0925 37.8608 34.335 42.1907 34.335 47.475H36.335C36.335 42.6793 37.9075 38.9092 41.0066 36.0613L39.6534 34.5887ZM34.335 47.475C34.335 52.1847 36.1788 56.1079 39.8209 59.1749L41.1091 57.6451C37.9112 54.952 36.335 51.5853 36.335 47.475H34.335ZM39.8209 59.1749C43.4353 62.2186 49.1255 64.4204 56.7479 65.8723L57.1221 63.9077C49.6246 62.4796 44.3347 60.3614 41.1091 57.6451L39.8209 59.1749ZM56.7479 65.8723C64.3953 67.329 74.4554 68.05 86.905 68.05V66.05C74.5146 66.05 64.5947 65.331 57.1221 63.9077L56.7479 65.8723ZM86.905 68.05C95.6602 68.05 103.259 67.6891 109.697 66.9637L109.473 64.9763C103.131 65.6909 95.6098 66.05 86.905 66.05V68.05ZM109.709 66.9623C116.237 66.1463 122.146 64.9205 127.431 63.2801L126.839 61.3699C121.684 62.9695 115.893 64.1737 109.461 64.9777L109.709 66.9623ZM127.427 63.2815C132.783 61.6474 138.091 59.6055 143.352 57.1566L142.508 55.3434C137.329 57.7545 132.107 59.7626 126.843 61.3685L127.427 63.2815ZM142.16 56.8876L145.4 60.8026L146.94 59.5274L143.7 55.6124L142.16 56.8876ZM145.286 59.6968C139.806 70.0383 131.68 77.9485 120.877 83.4385L121.783 85.2215C132.94 79.5515 141.374 71.3517 147.054 60.6332L145.286 59.6968ZM120.877 83.4385C110.076 88.9273 96.5183 91.7 80.155 91.7V93.7C96.7317 93.7 110.624 90.8927 121.783 85.2215L120.877 83.4385ZM137.99 90C137.99 87.386 138.339 84.3969 139.049 81.026L137.091 80.614C136.361 84.0831 135.99 87.214 135.99 90H137.99ZM139.049 81.026C139.763 77.6336 140.656 74.1036 141.73 70.4359L139.81 69.8741C138.724 73.5864 137.817 77.1664 137.091 80.614L139.049 81.026ZM141.725 70.4507C142.894 66.6744 144.018 63.1237 145.096 59.7985L143.194 59.1815C142.112 62.5163 140.986 66.0756 139.815 69.8593L141.725 70.4507ZM144.145 58.49H91.495V60.49H144.145V58.49ZM92.495 59.49V45.315H90.495V59.49H92.495ZM91.495 46.315H163.45V44.315H91.495V46.315ZM162.45 45.315V90H164.45V45.315H162.45ZM163.45 89H136.99V91H163.45V89ZM216.079 53.55V52.55H215.079V53.55H216.079ZM216.079 64.35H215.079V65.35H216.079V64.35ZM318.679 64.35H319.679V63.35H318.679V64.35ZM318.679 90V91H319.679V90H318.679ZM182.329 90H181.329V91H182.329V90ZM182.329 3.59999V2.59999H181.329V3.59999H182.329ZM318.409 3.59999H319.409V2.59999H318.409V3.59999ZM318.409 29.25V30.25H319.409V29.25H318.409ZM216.079 29.25V28.25H215.079V29.25H216.079ZM216.079 40.05H215.079V41.05H216.079V40.05ZM299.779 40.05H300.779V39.05H299.779V40.05ZM299.779 53.55V54.55H300.779V53.55H299.779ZM215.079 53.55V64.35H217.079V53.55H215.079ZM216.079 65.35H318.679V63.35H216.079V65.35ZM317.679 64.35V90H319.679V64.35H317.679ZM318.679 89H182.329V91H318.679V89ZM183.329 90V3.59999H181.329V90H183.329ZM182.329 4.59999H318.409V2.59999H182.329V4.59999ZM317.409 3.59999V29.25H319.409V3.59999H317.409ZM318.409 28.25H216.079V30.25H318.409V28.25ZM215.079 29.25V40.05H217.079V29.25H215.079ZM216.079 41.05H299.779V39.05H216.079V41.05ZM298.779 40.05V53.55H300.779V40.05H298.779ZM299.779 52.55H216.079V54.55H299.779V52.55ZM330.781 3.59999V2.59999H329.781V3.59999H330.781ZM471.181 3.59999H472.181V2.59999H471.181V3.59999ZM471.181 29.25V30.25H472.181V29.25H471.181ZM330.781 29.25H329.781V30.25H330.781V29.25ZM384.106 27.495V26.495H383.106V27.495H384.106ZM417.856 27.495H418.856V26.495H417.856V27.495ZM417.856 90V91H418.856V90H417.856ZM384.106 90H383.106V91H384.106V90ZM330.781 4.59999H471.181V2.59999H330.781V4.59999ZM470.181 3.59999V29.25H472.181V3.59999H470.181ZM471.181 28.25H330.781V30.25H471.181V28.25ZM331.781 29.25V3.59999H329.781V29.25H331.781ZM384.106 28.495H417.856V26.495H384.106V28.495ZM416.856 27.495V90H418.856V27.495H416.856ZM417.856 89H384.106V91H417.856V89ZM385.106 90V27.495H383.106V90H385.106ZM3.475 106.6V105.6H2.475V106.6H3.475ZM37.225 106.6H38.225V105.6H37.225V106.6ZM37.225 193V194H38.225V193H37.225ZM3.475 193H2.475V194H3.475V193ZM3.475 107.6H37.225V105.6H3.475V107.6ZM36.225 106.6V193H38.225V106.6H36.225ZM37.225 192H3.475V194H37.225V192ZM4.475 193V106.6H2.475V193H4.475ZM193.544 166.54L194.04 167.409L195.538 166.555L194.052 165.679L193.544 166.54ZM180.989 173.695H179.989V175.416L181.485 174.564L180.989 173.695ZM180.989 106.6V105.6H179.989V106.6H180.989ZM214.739 106.6H215.739V105.6H214.739V106.6ZM214.739 193V194H215.739V193H214.739ZM180.989 193L180.488 193.865L180.721 194H180.989V193ZM79.3345 134.14L78.8323 133.275L77.3409 134.141L78.8334 135.005L79.3345 134.14ZM91.8895 126.85H92.8895V125.113L91.3873 125.985L91.8895 126.85ZM91.8895 193V194H92.8895V193H91.8895ZM58.1395 193H57.1395V194H58.1395V193ZM58.1395 106.6V105.6H57.1395V106.6H58.1395ZM91.8895 106.6L92.3974 105.739L92.1623 105.6H91.8895V106.6ZM193.049 165.671L180.494 172.826L181.485 174.564L194.04 167.409L193.049 165.671ZM181.989 173.695V106.6H179.989V173.695H181.989ZM180.989 107.6H214.739V105.6H180.989V107.6ZM213.739 106.6V193H215.739V106.6H213.739ZM214.739 192H180.989V194H214.739V192ZM181.491 192.135L79.8355 133.275L78.8334 135.005L180.488 193.865L181.491 192.135ZM79.8366 135.005L92.3916 127.715L91.3873 125.985L78.8323 133.275L79.8366 135.005ZM90.8895 126.85V193H92.8895V126.85H90.8895ZM91.8895 192H58.1395V194H91.8895V192ZM59.1395 193V106.6H57.1395V193H59.1395ZM58.1395 107.6H91.8895V105.6H58.1395V107.6ZM91.3815 107.461L193.037 167.401L194.052 165.679L92.3974 105.739L91.3815 107.461ZM264.6 106.6V105.6H263.6V106.6H264.6ZM405 106.6H406V105.6H405V106.6ZM405 132.25V133.25H406V132.25H405ZM264.6 132.25H263.6V133.25H264.6V132.25ZM317.925 130.495V129.495H316.925V130.495H317.925ZM351.675 130.495H352.675V129.495H351.675V130.495ZM351.675 193V194H352.675V193H351.675ZM317.925 193H316.925V194H317.925V193ZM264.6 107.6H405V105.6H264.6V107.6ZM404 106.6V132.25H406V106.6H404ZM405 131.25H264.6V133.25H405V131.25ZM265.6 132.25V106.6H263.6V132.25H265.6ZM317.925 131.495H351.675V129.495H317.925V131.495ZM350.675 130.495V193H352.675V130.495H350.675ZM351.675 192H317.925V194H351.675V192ZM318.925 193V130.495H316.925V193H318.925ZM444.663 190.57L444.382 191.53L444.389 191.532L444.663 190.57ZM418.473 175.18L417.689 175.8L417.693 175.805L417.698 175.811L418.473 175.18ZM418.473 124.555L417.694 123.929L417.693 123.93L418.473 124.555ZM444.663 109.165L444.938 110.127L444.945 110.125L444.663 109.165ZM539.433 109.165L539.152 110.125L539.159 110.127L539.433 109.165ZM565.488 124.555L564.704 125.175L564.708 125.18L564.713 125.186L565.488 124.555ZM565.488 175.18L564.709 174.554L564.708 174.555L565.488 175.18ZM539.433 190.57L539.708 191.532L539.715 191.53L539.433 190.57ZM516.078 168.43L516.236 169.418L516.249 169.415L516.078 168.43ZM531.738 162.355L532.354 163.143L532.36 163.139L532.365 163.134L531.738 162.355ZM531.738 137.38L531.111 138.159L531.117 138.164L531.123 138.168L531.738 137.38ZM516.078 131.305L515.908 132.29L515.92 132.292L516.078 131.305ZM467.613 131.305L467.767 132.293L467.778 132.291L467.613 131.305ZM451.278 137.38L451.875 138.182L451.878 138.18L451.278 137.38ZM451.278 162.355L450.67 163.148L450.68 163.156L450.69 163.164L451.278 162.355ZM467.613 168.43L467.447 169.416L467.454 169.417L467.461 169.418L467.613 168.43ZM492.048 194.7C472.474 194.7 456.783 192.993 444.938 189.608L444.389 191.532C456.484 194.987 472.382 196.7 492.048 196.7V194.7ZM444.945 189.61C433.088 186.134 424.567 181.087 419.249 174.549L417.698 175.811C423.36 182.773 432.298 187.986 444.382 191.53L444.945 189.61ZM419.258 174.56C414.019 167.924 411.373 159.692 411.373 149.8H409.373C409.373 160.068 412.128 168.756 417.689 175.8L419.258 174.56ZM411.373 149.8C411.373 139.908 414.019 131.724 419.254 125.18L417.693 123.93C412.128 130.886 409.373 139.532 409.373 149.8H411.373ZM419.253 125.181C424.57 118.557 433.087 113.513 444.938 110.127L444.389 108.203C432.3 111.657 423.357 116.873 417.694 123.929L419.253 125.181ZM444.945 110.125C456.787 106.652 472.476 104.9 492.048 104.9V102.9C472.381 102.9 456.48 104.658 444.382 108.205L444.945 110.125ZM492.048 104.9C511.621 104.9 527.31 106.652 539.152 110.125L539.715 108.205C527.617 104.658 511.716 102.9 492.048 102.9V104.9ZM539.159 110.127C551.01 113.513 559.479 118.556 564.704 125.175L566.273 123.935C560.698 116.874 551.797 111.657 539.708 108.203L539.159 110.127ZM564.713 125.186C570.035 131.73 572.723 139.912 572.723 149.8H574.723C574.723 139.528 571.922 130.88 566.264 123.924L564.713 125.186ZM572.723 149.8C572.723 159.688 570.035 167.918 564.709 174.554L566.268 175.806C571.922 168.762 574.723 160.072 574.723 149.8H572.723ZM564.708 174.555C559.481 181.088 551.009 186.134 539.152 189.61L539.715 191.53C551.798 187.986 560.696 182.772 566.269 175.805L564.708 174.555ZM539.159 189.608C527.314 192.993 511.622 194.7 492.048 194.7V196.7C511.714 196.7 527.613 194.987 539.708 191.532L539.159 189.608ZM492.048 171.05C501.354 171.05 509.419 170.508 516.236 169.417L515.92 167.443C509.237 168.512 501.283 169.05 492.048 169.05V171.05ZM516.249 169.415C523.092 168.229 528.488 166.161 532.354 163.143L531.123 161.567C527.609 164.309 522.565 166.291 515.908 167.445L516.249 169.415ZM532.365 163.134C536.326 159.946 538.273 155.455 538.273 149.8H536.273C536.273 154.945 534.531 158.824 531.111 161.576L532.365 163.134ZM538.273 149.8C538.273 144.145 536.326 139.692 532.354 136.592L531.123 138.168C534.531 140.828 536.273 144.655 536.273 149.8H538.273ZM532.365 136.601C528.493 133.484 523.087 131.414 516.236 130.318L515.92 132.292C522.57 133.356 527.604 135.336 531.111 138.159L532.365 136.601ZM516.249 130.32C509.427 129.137 501.357 128.55 492.048 128.55V130.55C501.28 130.55 509.23 131.133 515.908 132.29L516.249 130.32ZM492.048 128.55C482.739 128.55 474.537 129.137 467.449 130.319L467.778 132.291C474.73 131.133 482.818 130.55 492.048 130.55V128.55ZM467.459 130.317C460.431 131.412 454.813 133.479 450.678 136.58L451.878 138.18C455.664 135.341 460.936 133.358 467.767 132.293L467.459 130.317ZM450.681 136.578C446.525 139.671 444.473 144.127 444.473 149.8H446.473C446.473 144.673 448.292 140.849 451.875 138.182L450.681 136.578ZM444.473 149.8C444.473 155.473 446.524 159.967 450.67 163.148L451.887 161.562C448.293 158.803 446.473 154.927 446.473 149.8H444.473ZM450.69 163.164C454.818 166.165 460.426 168.231 467.447 169.416L467.78 167.444C460.941 166.289 455.659 164.305 451.867 161.546L450.69 163.164ZM467.461 169.418C474.544 170.508 482.742 171.05 492.048 171.05V169.05C482.815 169.05 474.723 168.512 467.766 167.442L467.461 169.418ZM712.649 106.6V105.6H711.649V106.6H712.649ZM746.399 106.6H747.399V105.6H746.399V106.6ZM742.079 169.375L741.197 168.904L741.194 168.91L742.079 169.375ZM730.334 182.605L730.896 183.433L730.905 183.426L730.334 182.605ZM712.919 190.57L713.195 191.531L712.919 190.57ZM691.724 194.485L691.629 193.489L691.616 193.491L691.724 194.485ZM645.149 194.485L645.254 193.49L645.243 193.489L645.149 194.485ZM623.819 190.57L623.539 191.53L623.543 191.531L623.819 190.57ZM606.809 182.605L606.223 183.416L606.234 183.423L606.809 182.605ZM595.334 169.375L594.44 169.822L594.444 169.831L594.449 169.84L595.334 169.375ZM591.284 106.6V105.6H590.284V106.6H591.284ZM625.034 106.6H626.034V105.6H625.034V106.6ZM645.284 168.025L645.067 169.001L645.075 169.003L645.083 169.005L645.284 168.025ZM692.129 168.025L692.33 169.005L692.343 169.002L692.129 168.025ZM707.249 160.195L706.525 159.505L706.516 159.515L707.249 160.195ZM713.649 143.725V106.6H711.649V143.725H713.649ZM712.649 107.6H746.399V105.6H712.649V107.6ZM745.399 106.6V149.8H747.399V106.6H745.399ZM745.399 149.8C745.399 157.326 743.982 163.681 741.197 168.904L742.961 169.846C745.936 164.269 747.399 157.574 747.399 149.8H745.399ZM741.194 168.91C738.48 174.074 734.674 178.364 729.763 181.784L730.905 183.426C736.074 179.826 740.098 175.296 742.964 169.84L741.194 168.91ZM729.772 181.778C724.83 185.131 719.123 187.745 712.643 189.609L713.195 191.531C719.855 189.615 725.758 186.919 730.896 183.432L729.772 181.778ZM712.643 189.609C706.138 191.48 699.134 192.775 691.629 193.49L691.819 195.48C699.434 194.755 706.56 193.44 713.195 191.531L712.643 189.609ZM691.616 193.491C684.183 194.297 676.614 194.7 668.909 194.7V196.7C676.684 196.7 684.325 196.293 691.832 195.479L691.616 193.491ZM668.909 194.7C660.752 194.7 652.867 194.297 645.254 193.491L645.044 195.479C652.731 196.293 660.686 196.7 668.909 196.7V194.7ZM645.243 193.489C637.647 192.775 630.599 191.48 624.095 189.609L623.543 191.531C630.179 193.44 637.351 194.755 645.055 195.481L645.243 193.489ZM624.099 189.61C617.711 187.747 612.143 185.136 607.384 181.787L606.234 183.423C611.195 186.914 616.967 189.613 623.539 191.53L624.099 189.61ZM607.394 181.794C602.66 178.375 598.937 174.083 596.219 168.91L594.449 169.84C597.311 175.287 601.238 179.815 606.224 183.416L607.394 181.794ZM596.228 168.928C593.614 163.699 592.284 157.335 592.284 149.8H590.284C590.284 157.565 591.654 164.251 594.44 169.822L596.228 168.928ZM592.284 149.8V106.6H590.284V149.8H592.284ZM591.284 107.6H625.034V105.6H591.284V107.6ZM624.034 106.6V143.725H626.034V106.6H624.034ZM624.034 143.725C624.034 151.077 625.827 156.848 629.566 160.875L631.032 159.515C627.751 155.982 626.034 150.773 626.034 143.725H624.034ZM629.566 160.875C633.249 164.841 638.446 167.53 645.067 169.001L645.501 167.049C639.162 165.64 634.369 163.109 631.032 159.515L629.566 160.875ZM645.083 169.005C651.738 170.372 659.684 171.05 668.909 171.05V169.05C659.774 169.05 651.97 168.378 645.485 167.045L645.083 169.005ZM668.909 171.05C677.866 171.05 685.677 170.372 692.33 169.005L691.928 167.045C685.441 168.378 677.772 169.05 668.909 169.05V171.05ZM692.343 169.002C699.052 167.531 704.297 164.844 707.982 160.875L706.516 159.515C703.182 163.106 698.346 165.639 691.915 167.048L692.343 169.002ZM707.973 160.885C711.808 156.858 713.649 151.083 713.649 143.725H711.649C711.649 150.767 709.89 155.972 706.525 159.505L707.973 160.885ZM925.282 156.955L926.281 157.008L926.336 155.955H925.282V156.955ZM915.967 178.42L916.675 179.127L915.967 178.42ZM890.452 191.38L890.204 190.411L890.203 190.412L890.452 191.38ZM812.962 193.54L813.1 192.549L813.092 192.548L812.962 193.54ZM786.502 186.52L786.078 187.425L786.087 187.43L786.502 186.52ZM769.762 172.615L770.596 172.063L769.762 172.615ZM769.762 128.2L770.6 128.746L770.604 128.74L769.762 128.2ZM786.502 113.89L786.936 114.791L786.945 114.787L786.502 113.89ZM812.962 106.195L813.109 107.184L812.962 106.195ZM890.587 108.625L890.318 109.588L890.325 109.59L890.587 108.625ZM916.102 122.26L916.826 121.569L916.102 122.26ZM925.417 144.265V145.265H926.471L926.416 144.213L925.417 144.265ZM890.317 144.265L889.381 144.616L889.624 145.265H890.317V144.265ZM884.377 136.705L883.762 137.493L883.77 137.499L883.777 137.505L884.377 136.705ZM871.417 131.44L871.631 130.463L871.417 131.44ZM819.982 131.71L820.167 132.693L820.179 132.691L819.982 131.71ZM804.187 138.325L803.511 137.589L804.187 138.325ZM804.187 161.68L804.842 160.924L804.187 161.68ZM819.982 168.025L820.167 167.042L819.982 168.025ZM871.282 168.295L871.083 167.315L871.08 167.316L871.282 168.295ZM884.242 163.57L884.809 164.394L884.818 164.388L884.826 164.382L884.242 163.57ZM890.182 156.955V155.955H889.543L889.274 156.536L890.182 156.955ZM924.284 156.902C923.846 165.22 920.836 172.137 915.26 177.713L916.675 179.127C922.619 173.183 925.819 165.79 926.281 157.008L924.284 156.902ZM915.26 177.713C909.67 183.303 901.351 187.558 890.204 190.411L890.7 192.349C902.054 189.442 910.745 185.057 916.675 179.127L915.26 177.713ZM890.203 190.412C879.153 193.263 865.115 194.7 848.062 194.7V196.7C865.21 196.7 879.432 195.257 890.702 192.348L890.203 190.412ZM848.062 194.7C835.048 194.7 823.395 193.982 813.1 192.55L812.825 194.53C823.23 195.978 834.977 196.7 848.062 196.7V194.7ZM813.092 192.548C802.813 191.208 794.095 188.889 786.918 185.61L786.087 187.43C793.49 190.811 802.412 193.172 812.833 194.532L813.092 192.548ZM786.927 185.615C779.778 182.261 774.351 177.738 770.596 172.063L768.928 173.167C772.914 179.192 778.646 183.939 786.078 187.425L786.927 185.615ZM770.596 172.063C766.861 166.416 764.957 159.242 764.957 150.475H762.957C762.957 159.528 764.924 167.114 768.928 173.167L770.596 172.063ZM764.957 150.475C764.957 141.709 766.86 134.486 770.6 128.746L768.925 127.654C764.925 133.794 762.957 141.421 762.957 150.475H764.957ZM770.604 128.74C774.362 122.885 779.791 118.231 786.936 114.791L786.069 112.989C778.634 116.569 772.903 121.455 768.921 127.66L770.604 128.74ZM786.945 114.787C794.119 111.244 802.834 108.703 813.109 107.184L812.816 105.206C802.391 106.747 793.465 109.336 786.06 112.993L786.945 114.787ZM813.109 107.184C823.4 105.663 835.05 104.9 848.062 104.9V102.9C834.975 102.9 823.225 103.667 812.816 105.206L813.109 107.184ZM848.062 104.9C865.109 104.9 879.186 106.471 890.318 109.588L890.857 107.662C879.489 104.479 865.216 102.9 848.062 102.9V104.9ZM890.325 109.59C901.466 112.62 909.786 117.095 915.379 122.951L916.826 121.569C910.899 115.365 902.209 110.75 890.85 107.66L890.325 109.59ZM915.379 122.951C920.967 128.801 923.981 135.906 924.419 144.317L926.416 144.213C925.954 135.344 922.758 127.779 916.826 121.569L915.379 122.951ZM925.417 143.265H890.317V145.265H925.417V143.265ZM891.254 143.914C890.096 140.827 887.984 138.16 884.977 135.905L883.777 137.505C886.531 139.57 888.379 141.943 889.381 144.616L891.254 143.914ZM884.993 135.917C881.944 133.535 877.458 131.738 871.631 130.463L871.204 132.417C876.897 133.662 881.051 135.375 883.762 137.493L884.993 135.917ZM871.631 130.463C865.77 129.181 857.904 128.55 848.062 128.55V130.55C857.841 130.55 865.545 131.179 871.204 132.417L871.631 130.463ZM848.062 128.55C836.509 128.55 827.076 129.271 819.786 130.729L820.179 132.691C827.288 131.269 836.576 130.55 848.062 130.55V128.55ZM819.798 130.727C812.517 132.092 807.039 134.346 803.511 137.589L804.864 139.061C807.995 136.184 813.048 134.028 820.167 132.693L819.798 130.727ZM803.511 137.589C799.95 140.861 798.192 145.191 798.192 150.475H800.192C800.192 145.679 801.765 141.909 804.864 139.061L803.511 137.589ZM798.192 150.475C798.192 155.341 799.973 159.357 803.533 162.436L804.842 160.924C801.742 158.243 800.192 154.789 800.192 150.475H798.192ZM803.533 162.436C807.059 165.485 812.527 167.644 819.798 169.008L820.167 167.042C813.038 165.706 807.976 163.635 804.842 160.924L803.533 162.436ZM819.798 169.008C827.083 170.374 836.511 171.05 848.062 171.05V169.05C836.573 169.05 827.282 168.376 820.167 167.042L819.798 169.008ZM848.062 171.05C857.901 171.05 865.718 170.464 871.484 169.274L871.08 167.316C865.507 168.466 857.844 169.05 848.062 169.05V171.05ZM871.482 169.275C877.295 168.094 881.768 166.485 884.809 164.394L883.676 162.746C880.957 164.615 876.789 166.156 871.083 167.315L871.482 169.275ZM884.826 164.382C887.796 162.247 889.916 159.919 891.09 157.374L889.274 156.536C888.289 158.671 886.449 160.753 883.659 162.758L884.826 164.382ZM890.182 157.955H925.282V155.955H890.182V157.955ZM971.912 136.435V135.435H970.912V136.435H971.912ZM1066.95 136.435H1067.95V135.435H1066.95V136.435ZM1066.95 162.085V163.085H1067.95V162.085H1066.95ZM971.912 162.085H970.912V163.085H971.912V162.085ZM1063.17 106.6V105.6H1062.17V106.6H1063.17ZM1096.92 106.6H1097.92V105.6H1096.92V106.6ZM1096.92 193V194H1097.92V193H1096.92ZM1063.17 193H1062.17V194H1063.17V193ZM943.022 106.6V105.6H942.022V106.6H943.022ZM976.772 106.6H977.772V105.6H976.772V106.6ZM976.772 193V194H977.772V193H976.772ZM943.022 193H942.022V194H943.022V193ZM971.912 137.435H1066.95V135.435H971.912V137.435ZM1065.95 136.435V162.085H1067.95V136.435H1065.95ZM1066.95 161.085H971.912V163.085H1066.95V161.085ZM972.912 162.085V136.435H970.912V162.085H972.912ZM1063.17 107.6H1096.92V105.6H1063.17V107.6ZM1095.92 106.6V193H1097.92V106.6H1095.92ZM1096.92 192H1063.17V194H1096.92V192ZM1064.17 193V106.6H1062.17V193H1064.17ZM943.022 107.6H976.772V105.6H943.022V107.6ZM975.772 106.6V193H977.772V106.6H975.772ZM976.772 192H943.022V194H976.772V192ZM944.022 193V106.6H942.022V193H944.022Z" fill="white"/>
</svg>
